<svg xmlns="http://www.w3.org/2000/svg" xmlns:svg="http://www.w3.org/2000/svg" xmlns:xlink="http://www.w3.org/1999/xlink" id="svg167" width="400" height="200" version="1.1" viewBox="0 0 400 200"><metadata id="metadata169"/><defs id="defs63"><linearGradient id="color-on-primary-dark" x1="6.212" x2="29.25" y1="11.894" y2="11.894" gradientTransform="scale(1.1452981,0.87313514)" gradientUnits="userSpaceOnUse"><stop id="stop6" offset="1" stop-color="#FFF"/></linearGradient><linearGradient id="color-on-primary-light" x1="6.212" x2="29.25" y1="11.894" y2="11.894" gradientTransform="scale(1.1452981,0.87313514)" gradientUnits="userSpaceOnUse"><stop id="stop9" offset="1" stop-color="#000" stop-opacity=".87"/></linearGradient><linearGradient id="color-text-secondary-disabled"><stop id="stop12" offset="1" stop-color="#000" stop-opacity=".26"/></linearGradient><linearGradient id="color-text-secondary-disabled-dark"><stop id="stop15" offset="1" stop-color="#FFF" stop-opacity=".3"/></linearGradient><linearGradient id="color-primary-dark"><stop id="stop18" offset="1" stop-color="#1A73E8"/></linearGradient><linearGradient id="color-primary-light"><stop id="stop21" offset="1" stop-color="#3281ea"/></linearGradient><linearGradient id="color-background"><stop id="stop24" offset="1" stop-color="#F2F2F2"/></linearGradient><linearGradient id="color-background-dark"><stop id="stop27" offset="1" stop-color="#212121"/></linearGradient><linearGradient id="color-surface" x1="0" x2="40" y1="0" y2="0" gradientUnits="userSpaceOnUse"><stop id="stop30" offset="1" stop-color="#FFF"/></linearGradient><linearGradient id="color-surface-dark" x1="0" x2="40" y1="0" y2="0" gradientUnits="userSpaceOnUse"><stop id="stop33" offset="1" stop-color="#3C3C3C"/></linearGradient><g id="base-scale-slider"><rect id="rect36" width="24" height="24" fill="none"/><circle id="circle38" cx="12" cy="12" r="6"/></g><g id="base-scale-horz-marks-before-slider"><rect id="rect41" width="24" height="24" fill="none"/><path id="path43" d="M6 6h6a6 6 0 1 1-6 6z" transform="rotate(45 12 12)"/></g><g id="base-scale-vert-marks-after-slider"><use id="use46" transform="rotate(90 12 12)" xlink:href="#base-scale-horz-marks-before-slider"/></g><g id="base-scale-horz-marks-after-slider"><use id="use49" transform="rotate(180 12 12)" xlink:href="#base-scale-horz-marks-before-slider"/></g><g id="base-scale-vert-marks-before-slider"><use id="use52" transform="rotate(270 12 12)" xlink:href="#base-scale-horz-marks-before-slider"/></g><g id="base-selectionmode-checkbox"><rect id="rect55" width="40" height="40" fill="none"/><rect id="rect57" width="36" height="36" x="2" y="2" rx="4"/></g><g id="base-selectionmode-checkmark"><path id="path60" d="M9 16.17L4.83 12l-1.42 1.41L9 19 21 7l-1.41-1.41z" transform="matrix(1.5 0 0 1.5 2 2)"/></g><linearGradient id="linearGradient976" x1="0" x2="200" y1="0" y2="0" gradientUnits="userSpaceOnUse" xlink:href="#color-background"/><linearGradient id="linearGradient978" x1="0" x2="24" y1="0" y2="0" gradientUnits="userSpaceOnUse" xlink:href="#color-primary-dark"/><linearGradient id="linearGradient980" x1="0" x2="24" y1="0" y2="0" gradientUnits="userSpaceOnUse" xlink:href="#color-background"/><linearGradient id="linearGradient982" x1="0" x2="24" y1="0" y2="0" gradientUnits="userSpaceOnUse" xlink:href="#color-text-secondary-disabled"/><linearGradient id="linearGradient984" x1="0" x2="24" y1="0" y2="0" gradientUnits="userSpaceOnUse" xlink:href="#color-primary-dark"/><linearGradient id="linearGradient986" x1="0" x2="24" y1="0" y2="0" gradientUnits="userSpaceOnUse" xlink:href="#color-background"/><linearGradient id="linearGradient988" x1="0" x2="24" y1="0" y2="0" gradientUnits="userSpaceOnUse" xlink:href="#color-text-secondary-disabled"/><linearGradient id="linearGradient990" x1="0" x2="24" y1="0" y2="0" gradientUnits="userSpaceOnUse" xlink:href="#color-primary-dark"/><linearGradient id="linearGradient992" x1="0" x2="24" y1="0" y2="0" gradientUnits="userSpaceOnUse" xlink:href="#color-background"/><linearGradient id="linearGradient994" x1="0" x2="24" y1="0" y2="0" gradientUnits="userSpaceOnUse" xlink:href="#color-text-secondary-disabled"/><linearGradient id="linearGradient996" x1="0" x2="24" y1="0" y2="0" gradientUnits="userSpaceOnUse" xlink:href="#color-primary-dark"/><linearGradient id="linearGradient998" x1="0" x2="24" y1="0" y2="0" gradientUnits="userSpaceOnUse" xlink:href="#color-background"/><linearGradient id="linearGradient1000" x1="0" x2="24" y1="0" y2="0" gradientUnits="userSpaceOnUse" xlink:href="#color-text-secondary-disabled"/><linearGradient id="linearGradient1002" x1="0" x2="24" y1="0" y2="0" gradientUnits="userSpaceOnUse" xlink:href="#color-primary-dark"/><linearGradient id="linearGradient1004" x1="0" x2="24" y1="0" y2="0" gradientUnits="userSpaceOnUse" xlink:href="#color-background"/><linearGradient id="linearGradient1006" x1="0" x2="24" y1="0" y2="0" gradientUnits="userSpaceOnUse" xlink:href="#color-text-secondary-disabled"/><linearGradient id="linearGradient1008" x1="0" x2="40" y1="0" y2="0" gradientUnits="userSpaceOnUse" xlink:href="#color-primary-dark"/><linearGradient id="linearGradient1041" x1="0" x2="200" y1="0" y2="0" gradientTransform="translate(200)" gradientUnits="userSpaceOnUse" xlink:href="#color-background-dark"/><linearGradient id="linearGradient1043" x1="0" x2="24" y1="0" y2="0" gradientUnits="userSpaceOnUse" xlink:href="#color-primary-light"/><linearGradient id="linearGradient1045" x1="0" x2="24" y1="0" y2="0" gradientUnits="userSpaceOnUse" xlink:href="#color-background-dark"/><linearGradient id="linearGradient1047" x1="0" x2="24" y1="0" y2="0" gradientUnits="userSpaceOnUse" xlink:href="#color-text-secondary-disabled-dark"/><linearGradient id="linearGradient1049" x1="0" x2="24" y1="0" y2="0" gradientUnits="userSpaceOnUse" xlink:href="#color-primary-light"/><linearGradient id="linearGradient1051" x1="0" x2="24" y1="0" y2="0" gradientUnits="userSpaceOnUse" xlink:href="#color-background-dark"/><linearGradient id="linearGradient1053" x1="0" x2="24" y1="0" y2="0" gradientUnits="userSpaceOnUse" xlink:href="#color-text-secondary-disabled-dark"/><linearGradient id="linearGradient1055" x1="0" x2="24" y1="0" y2="0" gradientUnits="userSpaceOnUse" xlink:href="#color-primary-light"/><linearGradient id="linearGradient1057" x1="0" x2="24" y1="0" y2="0" gradientUnits="userSpaceOnUse" xlink:href="#color-background-dark"/><linearGradient id="linearGradient1059" x1="0" x2="24" y1="0" y2="0" gradientUnits="userSpaceOnUse" xlink:href="#color-text-secondary-disabled-dark"/><linearGradient id="linearGradient1061" x1="0" x2="24" y1="0" y2="0" gradientUnits="userSpaceOnUse" xlink:href="#color-primary-light"/><linearGradient id="linearGradient1063" x1="0" x2="24" y1="0" y2="0" gradientUnits="userSpaceOnUse" xlink:href="#color-background-dark"/><linearGradient id="linearGradient1065" x1="0" x2="24" y1="0" y2="0" gradientUnits="userSpaceOnUse" xlink:href="#color-text-secondary-disabled-dark"/><linearGradient id="linearGradient1067" x1="0" x2="24" y1="0" y2="0" gradientUnits="userSpaceOnUse" xlink:href="#color-primary-light"/><linearGradient id="linearGradient1069" x1="0" x2="24" y1="0" y2="0" gradientUnits="userSpaceOnUse" xlink:href="#color-background-dark"/><linearGradient id="linearGradient1071" x1="0" x2="24" y1="0" y2="0" gradientUnits="userSpaceOnUse" xlink:href="#color-text-secondary-disabled-dark"/><linearGradient id="linearGradient1073" x1="0" x2="40" y1="0" y2="0" gradientUnits="userSpaceOnUse" xlink:href="#color-primary-light"/></defs><g id="row-selected"><rect id="rect994" width="120" height="54" x="72" y="233" fill="#1a73e8" fill-opacity="1" stroke="none" stroke-dasharray="none" stroke-linecap="round" stroke-linejoin="round" stroke-miterlimit="4" stroke-opacity="1" stroke-width="2.477" opacity=".08" paint-order="stroke fill markers"/><path id="1" fill="#fff" fill-opacity="1" stroke="none" stroke-dasharray="none" stroke-linecap="round" stroke-linejoin="round" stroke-miterlimit="4" stroke-opacity="1" stroke-width="1.738" d="m 192,233 c 0,4.986 -4.014,9 -9,9 H 90 c -9.972,0 -18,8.028 -18,18 0,9.972 8.028,18 18,18 h 93 c 4.986,0 9,4.014 9,9 v -9 -36 z" opacity="1" paint-order="stroke fill markers"/></g><rect id="rect65" width="200" height="200" x="0" y="0" fill="url(#linearGradient976)"/><g id="scale-slider" transform="translate(8,8)"><use id="use67" width="100%" height="100%" x="0" y="0" fill="url(#linearGradient978)" xlink:href="#base-scale-slider"/></g><g id="scale-slider-disabled" transform="translate(8,40)"><use id="use70" width="100%" height="100%" x="0" y="0" fill="url(#linearGradient980)" xlink:href="#base-scale-slider"/><use id="use72" width="100%" height="100%" x="0" y="0" fill="url(#linearGradient982)" xlink:href="#base-scale-slider"/></g><g id="scale-horz-marks-before-slider" transform="translate(40,8)"><use id="use75" width="100%" height="100%" x="0" y="0" fill="url(#linearGradient984)" xlink:href="#base-scale-horz-marks-before-slider"/></g><g id="scale-horz-marks-before-slider-disabled" transform="translate(40,40)"><use id="use78" width="100%" height="100%" x="0" y="0" fill="url(#linearGradient986)" xlink:href="#base-scale-horz-marks-before-slider"/><use id="use80" width="100%" height="100%" x="0" y="0" fill="url(#linearGradient988)" xlink:href="#base-scale-horz-marks-before-slider"/></g><g id="scale-horz-marks-after-slider" transform="translate(72,8)"><use id="use83" width="100%" height="100%" x="0" y="0" fill="url(#linearGradient990)" xlink:href="#base-scale-horz-marks-after-slider"/></g><g id="scale-horz-marks-after-slider-disabled" transform="translate(72,40)"><use id="use86" width="100%" height="100%" x="0" y="0" fill="url(#linearGradient992)" xlink:href="#base-scale-horz-marks-after-slider"/><use id="use88" width="100%" height="100%" x="0" y="0" fill="url(#linearGradient994)" xlink:href="#base-scale-horz-marks-after-slider"/></g><g id="scale-vert-marks-before-slider" transform="translate(104,8)"><use id="use91" width="100%" height="100%" x="0" y="0" fill="url(#linearGradient996)" xlink:href="#base-scale-vert-marks-before-slider"/></g><g id="scale-vert-marks-before-slider-disabled" transform="translate(104,40)"><use id="use94" width="100%" height="100%" x="0" y="0" fill="url(#linearGradient998)" xlink:href="#base-scale-vert-marks-before-slider"/><use id="use96" width="100%" height="100%" x="0" y="0" fill="url(#linearGradient1000)" xlink:href="#base-scale-vert-marks-before-slider"/></g><g id="scale-vert-marks-after-slider" transform="translate(136,8)"><use id="use99" width="100%" height="100%" x="0" y="0" fill="url(#linearGradient1002)" xlink:href="#base-scale-vert-marks-after-slider"/></g><g id="scale-vert-marks-after-slider-disabled" transform="translate(136,40)"><use id="use102" width="100%" height="100%" x="0" y="0" fill="url(#linearGradient1004)" xlink:href="#base-scale-vert-marks-after-slider"/><use id="use104" width="100%" height="100%" x="0" y="0" fill="url(#linearGradient1006)" xlink:href="#base-scale-vert-marks-after-slider"/></g><g id="selectionmode-checkbox-unchecked" transform="translate(8,72)"><use id="use107" width="100%" height="100%" x="0" y="0" fill="url(#color-surface)" xlink:href="#base-selectionmode-checkbox"/></g><g id="selectionmode-checkbox-checked" transform="translate(56,72)"><use id="use110" width="100%" height="100%" x="0" y="0" fill="url(#linearGradient1008)" xlink:href="#base-selectionmode-checkbox"/><use id="use112" width="100%" height="100%" x="0" y="0" fill="url(#color-on-primary-dark)" xlink:href="#base-selectionmode-checkmark"/></g><rect id="rect116" width="200" height="200" x="200" y="0" fill="url(#linearGradient1041)"/><g id="scale-slider-dark" transform="translate(208,8)"><use id="use118" width="100%" height="100%" x="0" y="0" fill="url(#linearGradient1043)" xlink:href="#base-scale-slider"/></g><g id="scale-slider-disabled-dark" transform="translate(208,40)"><use id="use121" width="100%" height="100%" x="0" y="0" fill="url(#linearGradient1045)" xlink:href="#base-scale-slider"/><use id="use123" width="100%" height="100%" x="0" y="0" fill="url(#linearGradient1047)" xlink:href="#base-scale-slider"/></g><g id="scale-horz-marks-before-slider-dark" transform="translate(240,8)"><use id="use126" width="100%" height="100%" x="0" y="0" fill="url(#linearGradient1049)" xlink:href="#base-scale-horz-marks-before-slider"/></g><g id="scale-horz-marks-before-slider-disabled-dark" transform="translate(240,40)"><use id="use129" width="100%" height="100%" x="0" y="0" fill="url(#linearGradient1051)" xlink:href="#base-scale-horz-marks-before-slider"/><use id="use131" width="100%" height="100%" x="0" y="0" fill="url(#linearGradient1053)" xlink:href="#base-scale-horz-marks-before-slider"/></g><g id="scale-horz-marks-after-slider-dark" transform="translate(272,8)"><use id="use134" width="100%" height="100%" x="0" y="0" fill="url(#linearGradient1055)" xlink:href="#base-scale-horz-marks-after-slider"/></g><g id="scale-horz-marks-after-slider-disabled-dark" transform="translate(272,40)"><use id="use137" width="100%" height="100%" x="0" y="0" fill="url(#linearGradient1057)" xlink:href="#base-scale-horz-marks-after-slider"/><use id="use139" width="100%" height="100%" x="0" y="0" fill="url(#linearGradient1059)" xlink:href="#base-scale-horz-marks-after-slider"/></g><g id="scale-vert-marks-before-slider-dark" transform="translate(304,8)"><use id="use142" width="100%" height="100%" x="0" y="0" fill="url(#linearGradient1061)" xlink:href="#base-scale-vert-marks-before-slider"/></g><g id="scale-vert-marks-before-slider-disabled-dark" transform="translate(304,40)"><use id="use145" width="100%" height="100%" x="0" y="0" fill="url(#linearGradient1063)" xlink:href="#base-scale-vert-marks-before-slider"/><use id="use147" width="100%" height="100%" x="0" y="0" fill="url(#linearGradient1065)" xlink:href="#base-scale-vert-marks-before-slider"/></g><g id="scale-vert-marks-after-slider-dark" transform="translate(336,8)"><use id="use150" width="100%" height="100%" x="0" y="0" fill="url(#linearGradient1067)" xlink:href="#base-scale-vert-marks-after-slider"/></g><g id="scale-vert-marks-after-slider-disabled-dark" transform="translate(336,40)"><use id="use153" width="100%" height="100%" x="0" y="0" fill="url(#linearGradient1069)" xlink:href="#base-scale-vert-marks-after-slider"/><use id="use155" width="100%" height="100%" x="0" y="0" fill="url(#linearGradient1071)" xlink:href="#base-scale-vert-marks-after-slider"/></g><g id="selectionmode-checkbox-unchecked-dark" transform="translate(208,72)"><use id="use158" width="100%" height="100%" x="0" y="0" fill="url(#color-surface-dark)" xlink:href="#base-selectionmode-checkbox"/></g><g id="selectionmode-checkbox-checked-dark" transform="translate(256,72)"><use id="use161" width="100%" height="100%" x="0" y="0" fill="url(#linearGradient1073)" xlink:href="#base-selectionmode-checkbox"/><use id="use163" width="100%" height="100%" x="0" y="0" fill="url(#color-on-primary-light)" xlink:href="#base-selectionmode-checkmark"/></g><g id="row-selected-dark" transform="translate(132)"><rect id="rect1024" width="120" height="54" x="72" y="233" fill="#3281ea" fill-opacity="1" stroke="none" stroke-dasharray="none" stroke-linecap="round" stroke-linejoin="round" stroke-miterlimit="4" stroke-opacity="1" stroke-width="2.477" opacity=".08" paint-order="stroke fill markers"/><path id="path1026" fill="#2c2c2c" fill-opacity="1" stroke="none" stroke-dasharray="none" stroke-linecap="round" stroke-linejoin="round" stroke-miterlimit="4" stroke-opacity="1" stroke-width="1.738" d="m 192,233 c 0,4.986 -4.014,9 -9,9 H 90 c -9.972,0 -18,8.028 -18,18 0,9.972 8.028,18 18,18 h 93 c 4.986,0 9,4.014 9,9 v -9 -36 z" opacity="1" paint-order="stroke fill markers"/></g></svg>