<svg xmlns="http://www.w3.org/2000/svg" xmlns:svg="http://www.w3.org/2000/svg" xmlns:xlink="http://www.w3.org/1999/xlink" id="svg715" width="200" height="480" version="1.1" viewBox="0 0 200 480"><metadata id="metadata717"/><rect id="rect6" width="200" height="480" fill="url(#color-background)"/><defs id="defs286"><linearGradient id="color-text"><stop id="stop8" offset="1" stop-color="#FFF"/></linearGradient><linearGradient id="color-text-disabled"><stop id="stop11" offset="1" stop-color="#FFF" stop-opacity=".5"/></linearGradient><linearGradient id="color-text-secondary"><stop id="stop14" offset="1" stop-color="#FFF" stop-opacity=".7"/></linearGradient><linearGradient id="color-text-secondary-disabled"><stop id="stop17" offset="1" stop-color="#FFF" stop-opacity=".3"/></linearGradient><linearGradient id="color-track"><stop id="stop20" offset="1" stop-color="#FFF" stop-opacity=".3"/></linearGradient><linearGradient id="color-track-disabled"><stop id="stop23" offset="1" stop-color="#FFF" stop-opacity=".12"/></linearGradient><linearGradient id="color-divider"><stop id="stop26" offset="1" stop-color="#FFF" stop-opacity=".12"/></linearGradient><linearGradient id="color-fill"><stop id="stop29" offset="1" stop-color="#FFF" stop-opacity=".04"/></linearGradient><linearGradient id="color-primary"><stop id="stop32" offset="1" stop-color="#8AB4F8"/></linearGradient><linearGradient id="color-background"><stop id="stop35" offset="1" stop-color="#212121"/></linearGradient><linearGradient id="color-surface"><stop id="stop38" offset="1" stop-color="#3C3C3C"/></linearGradient><linearGradient id="color-base"><stop id="stop41" offset="1" stop-color="#2C2C2C"/></linearGradient><linearGradient id="color-base-alt"><stop id="stop44" offset="1" stop-color="#2C2C2C"/></linearGradient><linearGradient id="color-frame"><stop id="stop47" offset="1" stop-color="#000" stop-opacity=".26"/></linearGradient><filter id="z1" width="1" height="1" x="0" y="0" color-interpolation-filters="sRGB"><feFlood id="feFlood50" flood-color="#000" flood-opacity=".12" result="flood"/><feComposite id="feComposite52" in="flood" in2="SourceGraphic" operator="in" result="composite1"/><feGaussianBlur id="feGaussianBlur54" in="composite1" result="blur" stdDeviation="1.5"/><feOffset id="feOffset56" dx="0" dy="1" result="offset"/><feComposite id="feComposite58" in="SourceGraphic" in2="offset" result="fbSourceGraphic"/><feFlood id="feFlood60" flood-color="#000" flood-opacity=".24" result="flood"/><feComposite id="feComposite62" in="flood" in2="fbSourceGraphic" operator="in" result="composite1"/><feGaussianBlur id="feGaussianBlur64" in="composite1" result="blur" stdDeviation="1"/><feOffset id="feOffset66" dx="0" dy="1" result="offset"/><feComposite id="feComposite68" in="fbSourceGraphic" in2="offset" result="composite2"/></filter><clipPath id="top"><rect id="rect71" width="36" height="16" x="2" y="2"/></clipPath><clipPath id="left"><rect id="rect74" width="20" height="20"/></clipPath><clipPath id="right"><rect id="rect77" width="20" height="20" x="20"/></clipPath><clipPath id="left-top"><rect id="rect80" width="20" height="10"/></clipPath><clipPath id="left-bottom"><rect id="rect83" width="20" height="10" y="10"/></clipPath><clipPath id="right-top"><rect id="rect86" width="20" height="10" x="20"/></clipPath><clipPath id="right-bottom"><rect id="rect89" width="20" height="10" x="20" y="10"/></clipPath><rect id="icon-size" width="16" height="16" fill="none"/><g id="base-button-box"><rect id="rect93" width="20" height="20" fill="none"/><rect id="rect95" width="16" height="16" x="2" y="2" rx="4"/></g><g id="base-button"><use id="use98" fill="url(#color-surface)" filter="url(#z1)" xlink:href="#base-button-box"/></g><g id="base-button-hover"><use id="use101" filter="url(#z1)" xlink:href="#base-button"/></g><g id="base-button-active"><use id="use104" xlink:href="#base-button-hover"/><use id="use106" fill="url(#color-text)" fill-opacity=".2" xlink:href="#base-button-box"/></g><g id="base-button-disabled"><use id="use109" fill="url(#color-fill)" xlink:href="#base-button-box"/></g><g id="base-entry-box"><rect id="rect112" width="40" height="20" fill="none"/><rect id="rect114" width="36" height="36" x="2" y="2" clip-path="url(#top)" rx="4"/></g><g id="base-entry"><use id="use117" fill="url(#color-fill)" xlink:href="#base-entry-box"/><rect id="rect119" width="36" height="1" x="2" y="17" fill="url(#color-track)"/></g><g id="base-entry-hover"><use id="use122" xlink:href="#base-entry"/><use id="use124" fill="url(#color-text)" fill-opacity=".08" xlink:href="#base-entry-box"/></g><g id="base-entry-active"><use id="use127" xlink:href="#base-entry"/><use id="use129" fill="url(#color-text)" fill-opacity=".2" xlink:href="#base-entry-box"/></g><g id="base-entry-focus"><use id="use132" xlink:href="#base-entry"/><rect id="rect134" width="36" height="2" x="2" y="16" fill="url(#color-primary)"/></g><g id="base-entry-disabled"><use id="use137" fill="url(#color-fill)" xlink:href="#base-entry-box"/><rect id="rect139" width="36" height="1" x="2" y="17" fill="url(#color-track-disabled)"/></g><rect id="button-fill" width="24" height="24" rx="4"/><g id="base-checkbox-unchecked"><use id="use143" xlink:href="#button-fill"/><path id="path145" fill-opacity="1" d="M19 5v14H5V5h14m0-2H5c-1.1 0-2 .9-2 2v14c0 1.1.9 2 2 2h14c1.1 0 2-.9 2-2V5c0-1.1-.9-2-2-2z"/></g><g id="base-checkbox-checked"><use id="use148" xlink:href="#button-fill"/><path id="path150" fill-opacity="1" d="M19 3H5c-1.11 0-2 .9-2 2v14c0 1.1.89 2 2 2h14c1.11 0 2-.9 2-2V5c0-1.1-.89-2-2-2zm-9 14l-5-5 1.41-1.41L10 14.17l7.59-7.59L19 8l-9 9z"/></g><g id="base-checkbox-mixed"><use id="use153" xlink:href="#button-fill"/><path id="path155" fill-opacity="1" d="M19 3H5c-1.1 0-2 .9-2 2v14c0 1.1.9 2 2 2h14c1.1 0 2-.9 2-2V5c0-1.1-.9-2-2-2zm-2 10H7v-2h10v2z"/></g><g id="base-radio-unchecked"><use id="use158" xlink:href="#button-fill"/><path id="path160" fill-opacity="1" d="M12 2C6.48 2 2 6.48 2 12s4.48 10 10 10 10-4.48 10-10S17.52 2 12 2zm0 18c-4.42 0-8-3.58-8-8s3.58-8 8-8 8 3.58 8 8-3.58 8-8 8z"/></g><g id="base-radio-checked"><use id="use163" xlink:href="#button-fill"/><path id="path165" fill-opacity="1" d="M12 7c-2.76 0-5 2.24-5 5s2.24 5 5 5 5-2.24 5-5-2.24-5-5-5zm0-5C6.48 2 2 6.48 2 12s4.48 10 10 10 10-4.48 10-10S17.52 2 12 2zm0 18c-4.42 0-8-3.58-8-8s3.58-8 8-8 8 3.58 8 8-3.58 8-8 8z"/></g><g id="base-radio-mixed"><use id="use168" xlink:href="#button-fill"/><path id="path170" fill-opacity="1" d="M7 11v2h10v-2H7zm5-9C6.48 2 2 6.48 2 12s4.48 10 10 10 10-4.48 10-10S17.52 2 12 2zm0 18c-4.41 0-8-3.59-8-8s3.59-8 8-8 8 3.59 8 8-3.59 8-8 8z"/></g><g id="base-menu-checkbox-unchecked"><use id="use173" xlink:href="#icon-size"/><path id="path175" d="M2 0a2 2 0 0 0-2 2v12a2 2 0 0 0 2 2h12a2 2 0 0 0 2-2V2a2 2 0 0 0-2-2H2zm0 2h12v12H2V2z"/></g><g id="base-menu-checkbox-checked"><use id="use178" xlink:href="#icon-size"/><path id="path180" d="M2 0a2 2 0 0 0-2 2v12a2 2 0 0 0 2 2h12a2 2 0 0 0 2-2V2a2 2 0 0 0-2-2H2zm10.6 3.59L14.01 5l-8 8-4-4 1.41-1.41 2.59 2.59 6.59-6.59z"/></g><g id="base-menu-checkbox-mixed"><use id="use183" xlink:href="#icon-size"/><path id="path185" d="M2 0a2 2 0 0 0-2 2v12a2 2 0 0 0 2 2h12a2 2 0 0 0 2-2V2a2 2 0 0 0-2-2H2zm2 7h8v2H4V7z"/></g><g id="base-menu-radio-unchecked"><use id="use188" xlink:href="#icon-size"/><path id="path190" d="M8 0a8 8 0 0 0-8 8 8 8 0 0 0 8 8 8 8 0 0 0 8-8 8 8 0 0 0-8-8zm0 2a6 6 0 0 1 6 6 6 6 0 0 1-6 6 6 6 0 0 1-6-6 6 6 0 0 1 6-6z"/></g><g id="base-menu-radio-checked"><use id="use193" xlink:href="#icon-size"/><path id="path195" d="M8 0a8 8 0 0 0-8 8 8 8 0 0 0 8 8 8 8 0 0 0 8-8 8 8 0 0 0-8-8zm0 2a6 6 0 0 1 6 6 6 6 0 0 1-6 6 6 6 0 0 1-6-6 6 6 0 0 1 6-6zm0 2a4 4 0 0 0-4 4 4 4 0 0 0 4 4 4 4 0 0 0 4-4 4 4 0 0 0-4-4z"/></g><g id="base-menu-radio-mixed"><use id="use198" xlink:href="#icon-size"/><path id="path200" d="M8 0a8 8 0 0 0-8 8 8 8 0 0 0 8 8 8 8 0 0 0 8-8 8 8 0 0 0-8-8zm0 2a6 6 0 0 1 6 6 6 6 0 0 1-6 6 6 6 0 0 1-6-6 6 6 0 0 1 6-6zM4 7v2h8V7H4z"/></g><g id="base-scale-horz-trough"><rect id="rect203" width="24" height="24" fill="none"/><rect id="rect205" width="12" height="2" x="6" y="11"/></g><g id="base-scale-vert-trough"><use id="use208" transform="rotate(90 12 12)" xlink:href="#base-scale-horz-trough"/></g><g id="base-scrollbar-horz-slider"><rect id="rect211" width="17" height="17" y="-1" fill="none"/><rect id="rect213" width="9" height="8" x="4" y="4" rx="4"/></g><g id="base-scrollbar-horz-trough"><rect id="rect216" width="1" height="2" y="-1" fill="url(#color-base)"/><rect id="rect218" width="1" height="1" y="-1" fill="url(#color-divider)"/></g><g id="base-scrollbar-vert-ltr-slider"><use id="use221" transform="rotate(-90 8.5 8.5)" xlink:href="#base-scrollbar-horz-slider"/></g><g id="base-scrollbar-vert-ltr-trough"><use id="use224" transform="rotate(-90 0.5 0.5)" xlink:href="#base-scrollbar-horz-trough"/></g><g id="base-scrollbar-vert-rtl-slider"><use id="use227" transform="rotate(90 8 8)" xlink:href="#base-scrollbar-horz-slider"/></g><g id="base-scrollbar-vert-rtl-trough"><use id="use230" transform="rotate(90 0.5 0.5)" xlink:href="#base-scrollbar-horz-trough"/></g><g id="base-handle-horz"><circle id="circle233" cx="2" cy="2" r="2"/><circle id="circle235" cx="8" cy="2" r="2"/><circle id="circle237" cx="14" cy="2" r="2"/></g><g id="base-handle-vert"><use id="use240" transform="rotate(90 2 2)" xlink:href="#base-handle-horz"/></g><path id="pan-path" d="M13 6l-5 5-5-5z"/><g id="base-pan-down"><use id="use244" xlink:href="#icon-size"/><use id="use246" xlink:href="#pan-path"/></g><g id="base-pan-up"><use id="use249" xlink:href="#icon-size"/><use id="use251" transform="rotate(180 8 8)" xlink:href="#pan-path"/></g><g id="base-pan-left"><use id="use254" xlink:href="#icon-size"/><use id="use256" transform="rotate(90 8 8)" xlink:href="#pan-path"/></g><g id="base-pan-right"><use id="use259" xlink:href="#icon-size"/><use id="use261" transform="rotate(-90 8 8)" xlink:href="#pan-path"/></g><g id="base-pan-left-semi"><use id="use264" xlink:href="#icon-size"/><use id="use266" transform="rotate(45 8 8)" xlink:href="#pan-path"/></g><g id="base-pan-right-semi"><use id="use269" xlink:href="#icon-size"/><use id="use271" transform="rotate(-45 8 8)" xlink:href="#pan-path"/></g><g id="base-treeview-ltr-button"><rect id="rect274" width="2" height="2" fill="url(#color-base)" fill-opacity="1"/><rect id="rect276" width="2" height="2" fill="url(#color-divider)" fill-opacity="1"/><rect id="rect278" width="1" height="1" fill="url(#color-base)" fill-opacity="1"/><rect id="rect280" width="1" height="1"/></g><g id="base-treeview-rtl-button"><use id="use283" transform="scale(-1 1)" xlink:href="#base-treeview-ltr-button"/></g><linearGradient id="b" x2="20" gradientUnits="userSpaceOnUse" xlink:href="#color-fill"/><linearGradient id="linearGradient1491" x2="20" gradientUnits="userSpaceOnUse" xlink:href="#color-fill"/><linearGradient id="linearGradient1497" x2="20" gradientUnits="userSpaceOnUse" xlink:href="#color-fill"/><linearGradient id="a" x2="20" gradientUnits="userSpaceOnUse" xlink:href="#color-text"/><linearGradient id="linearGradient1506" x2="20" gradientUnits="userSpaceOnUse" xlink:href="#color-text"/><linearGradient id="linearGradient1512" x2="20" gradientUnits="userSpaceOnUse" xlink:href="#color-text"/><linearGradient id="linearGradient1518" x2="20" gradientUnits="userSpaceOnUse" xlink:href="#color-text"/><linearGradient id="linearGradient1524" x2="20" gradientUnits="userSpaceOnUse" xlink:href="#color-text"/><linearGradient id="linearGradient1530" x2="20" gradientUnits="userSpaceOnUse" xlink:href="#color-text"/><linearGradient id="linearGradient1554" x1="0" x2="1" y1="0" y2="0" gradientUnits="userSpaceOnUse" xlink:href="#color-fill"/><linearGradient id="linearGradient1558" x2="20" gradientUnits="userSpaceOnUse" xlink:href="#color-text"/><linearGradient id="linearGradient1593" x1="0" x2="1" y1="0" y2="0" gradientUnits="userSpaceOnUse" xlink:href="#color-fill"/></defs><g id="flat-button" transform="translate(8 8)"><use id="use288" fill="url(#color-text)" fill-opacity="0" xlink:href="#base-button-box"/></g><g id="flat-button-hover" transform="translate(8 28)"><use id="use291" fill="url(#color-text)" fill-opacity=".08" xlink:href="#base-button-box"/></g><g id="flat-button-active" transform="translate(8 48)"><use id="use294" fill="url(#color-text)" fill-opacity=".2" xlink:href="#base-button-box"/></g><g id="flat-button-disabled" transform="translate(8 68)"><use id="use297" fill="url(#color-text)" fill-opacity="0" xlink:href="#base-button-box"/></g><g id="button-disabled" transform="translate(32 68)"><use id="use309" xlink:href="#base-button-disabled"/></g><g id="entry" transform="translate(64 8)"><use id="use318" xlink:href="#base-entry"/></g><g id="entry-hover" transform="translate(64 28)"><use id="use321" xlink:href="#base-entry-hover"/></g><g id="entry-active" transform="translate(64 48)"><use id="use324" xlink:href="#base-entry-focus"/></g><g id="entry-disabled" transform="translate(64 68)"><use id="use327" xlink:href="#base-entry-disabled"/></g><g id="combo-left-entry" transform="translate(108 8)"><use id="use330" clip-path="url(#left)" xlink:href="#base-entry"/></g><g id="combo-left-entry-hover" transform="translate(108 28)"><use id="use333" clip-path="url(#left)" xlink:href="#base-entry-hover"/></g><g id="combo-left-entry-active" transform="translate(108 48)"><use id="use336" clip-path="url(#left)" xlink:href="#base-entry-focus"/></g><g id="combo-left-entry-disabled" transform="translate(108 68)"><use id="use339" clip-path="url(#left)" xlink:href="#base-entry-disabled"/></g><g id="combo-right-entry" transform="translate(108 8)"><use id="use342" clip-path="url(#right)" xlink:href="#base-entry"/></g><g id="combo-right-entry-hover" transform="translate(108 28)"><use id="use345" clip-path="url(#right)" xlink:href="#base-entry-hover"/></g><g id="combo-right-entry-active" transform="translate(108 48)"><use id="use348" clip-path="url(#right)" xlink:href="#base-entry-focus"/></g><g id="combo-right-entry-disabled" transform="translate(108 68)"><use id="use351" clip-path="url(#right)" xlink:href="#base-entry-disabled"/></g><g id="spin-rtl-up" transform="translate(152 8)"><use id="use354" clip-path="url(#left-top)" xlink:href="#base-entry"/></g><g id="spin-rtl-up-hover" transform="translate(152 28)"><use id="use357" clip-path="url(#left-top)" xlink:href="#base-entry-hover"/></g><g id="spin-rtl-up-active" transform="translate(152 48)"><use id="use360" clip-path="url(#left-top)" xlink:href="#base-entry-active"/></g><g id="spin-rtl-up-disabled" transform="translate(152 68)"><use id="use363" clip-path="url(#left-top)" xlink:href="#base-entry-disabled"/></g><g id="spin-rtl-down" transform="translate(152 8)"><use id="use366" clip-path="url(#left-bottom)" xlink:href="#base-entry"/></g><g id="spin-rtl-down-hover" transform="translate(152 28)"><use id="use369" clip-path="url(#left-bottom)" xlink:href="#base-entry-hover"/></g><g id="spin-rtl-down-active" transform="translate(152 48)"><use id="use372" clip-path="url(#left-bottom)" xlink:href="#base-entry-active"/></g><g id="spin-rtl-down-disabled" transform="translate(152 68)"><use id="use375" clip-path="url(#left-bottom)" xlink:href="#base-entry-disabled"/></g><g id="spin-ltr-up" transform="translate(152 8)"><use id="use378" clip-path="url(#right-top)" xlink:href="#base-entry"/></g><g id="spin-ltr-up-hover" transform="translate(152 28)"><use id="use381" clip-path="url(#right-top)" xlink:href="#base-entry-hover"/></g><g id="spin-ltr-up-active" transform="translate(152 48)"><use id="use384" clip-path="url(#right-top)" xlink:href="#base-entry-active"/></g><g id="spin-ltr-up-disabled" transform="translate(152 68)"><use id="use387" clip-path="url(#right-top)" xlink:href="#base-entry-disabled"/></g><g id="spin-ltr-down" transform="translate(152 8)"><use id="use390" clip-path="url(#right-bottom)" xlink:href="#base-entry"/></g><g id="spin-ltr-down-hover" transform="translate(152 28)"><use id="use393" clip-path="url(#right-bottom)" xlink:href="#base-entry-hover"/></g><g id="spin-ltr-down-active" transform="translate(152 48)"><use id="use396" clip-path="url(#right-bottom)" xlink:href="#base-entry-active"/></g><g id="spin-ltr-down-disabled" transform="translate(152 68)"><use id="use399" clip-path="url(#right-bottom)" xlink:href="#base-entry-disabled"/></g><g id="checkbox-unchecked" transform="translate(8 92)"><use id="use402" fill="url(#color-text-secondary)" fill-opacity="0" xlink:href="#base-checkbox-unchecked"/></g><g id="checkbox-unchecked-hover" transform="translate(8 124)"><use id="use405" fill="url(#color-text)" fill-opacity=".08" xlink:href="#base-checkbox-unchecked"/></g><g id="checkbox-unchecked-active" transform="translate(8 156)"><use id="use408" fill="url(#color-text)" fill-opacity=".2" xlink:href="#base-checkbox-unchecked"/></g><g id="checkbox-unchecked-disabled" transform="translate(8 188)"><use id="use411" fill="url(#color-text-secondary-disabled)" fill-opacity="0" xlink:href="#base-checkbox-unchecked"/></g><g id="checkbox-checked" transform="translate(40 92)"><use id="use414" fill="url(#color-primary)" fill-opacity="0" xlink:href="#base-checkbox-checked"/></g><g id="checkbox-checked-hover" transform="translate(40 124)"><use id="use417" fill="url(#color-primary)" fill-opacity=".08" xlink:href="#base-checkbox-checked"/></g><g id="checkbox-checked-active" transform="translate(40 156)"><use id="use420" fill="url(#color-primary)" fill-opacity=".2" xlink:href="#base-checkbox-checked"/></g><g id="checkbox-checked-disabled" transform="translate(40 188)"><use id="use423" fill="url(#color-text-secondary-disabled)" fill-opacity="0" xlink:href="#base-checkbox-checked"/></g><g id="checkbox-mixed" transform="translate(72 92)"><use id="use426" fill="url(#color-primary)" fill-opacity="0" xlink:href="#base-checkbox-mixed"/></g><g id="checkbox-mixed-hover" transform="translate(72 124)"><use id="use429" fill="url(#color-primary)" fill-opacity=".08" xlink:href="#base-checkbox-mixed"/></g><g id="checkbox-mixed-active" transform="translate(72 156)"><use id="use432" fill="url(#color-primary)" fill-opacity=".2" xlink:href="#base-checkbox-mixed"/></g><g id="checkbox-mixed-disabled" transform="translate(72 188)"><use id="use435" fill="url(#color-text-secondary-disabled)" fill-opacity="0" xlink:href="#base-checkbox-mixed"/></g><g id="radio-unchecked" transform="translate(104 92)"><use id="use438" fill="url(#color-text-secondary)" fill-opacity="0" xlink:href="#base-radio-unchecked"/></g><g id="radio-unchecked-hover" transform="translate(104 124)"><use id="use441" fill="url(#color-text)" fill-opacity=".08" xlink:href="#base-radio-unchecked"/></g><g id="radio-unchecked-active" transform="translate(104 156)"><use id="use444" fill="url(#color-text)" fill-opacity=".2" xlink:href="#base-radio-unchecked"/></g><g id="radio-unchecked-disabled" transform="translate(104 188)"><use id="use447" fill="url(#color-text-secondary-disabled)" fill-opacity="0" xlink:href="#base-radio-unchecked"/></g><g id="radio-checked" transform="translate(136 92)"><use id="use450" fill="url(#color-primary)" fill-opacity="0" xlink:href="#base-radio-checked"/></g><g id="radio-checked-hover" transform="translate(136 124)"><use id="use453" fill="url(#color-primary)" fill-opacity=".08" xlink:href="#base-radio-checked"/></g><g id="radio-checked-active" transform="translate(136 156)"><use id="use456" fill="url(#color-primary)" fill-opacity=".2" xlink:href="#base-radio-checked"/></g><g id="radio-checked-disabled" transform="translate(136 188)"><use id="use459" fill="url(#color-text-secondary-disabled)" fill-opacity="0" xlink:href="#base-radio-checked"/></g><g id="radio-mixed" transform="translate(168 92)"><use id="use462" fill="url(#color-primary)" fill-opacity="0" xlink:href="#base-radio-mixed"/></g><g id="radio-mixed-hover" transform="translate(168 124)"><use id="use465" fill="url(#color-primary)" fill-opacity=".08" xlink:href="#base-radio-mixed"/></g><g id="radio-mixed-active" transform="translate(168 156)"><use id="use468" fill="url(#color-primary)" fill-opacity=".2" xlink:href="#base-radio-mixed"/></g><g id="radio-mixed-disabled" transform="translate(168 188)"><use id="use471" fill="url(#color-text-secondary-disabled)" fill-opacity="0" xlink:href="#base-radio-mixed"/></g><g id="menu-checkbox-unchecked" transform="translate(12 220)"><use id="use474" fill="url(#color-text-secondary)" xlink:href="#base-menu-checkbox-unchecked"/></g><g id="menu-checkbox-unchecked-disabled" transform="translate(12 244)"><use id="use477" fill="url(#color-text-secondary-disabled)" xlink:href="#base-menu-checkbox-unchecked"/></g><g id="menu-checkbox-checked" transform="translate(44 220)"><use id="use480" fill="url(#color-primary)" xlink:href="#base-menu-checkbox-checked"/></g><g id="menu-checkbox-checked-disabled" transform="translate(44 244)"><use id="use483" fill="url(#color-text-secondary-disabled)" xlink:href="#base-menu-checkbox-checked"/></g><g id="menu-checkbox-mixed" transform="translate(76 220)"><use id="use486" fill="url(#color-primary)" xlink:href="#base-menu-checkbox-mixed"/></g><g id="menu-checkbox-mixed-disabled" transform="translate(76 244)"><use id="use489" fill="url(#color-text-secondary-disabled)" xlink:href="#base-menu-checkbox-mixed"/></g><g id="menu-radio-unchecked" transform="translate(108 220)"><use id="use492" fill="url(#color-text-secondary)" xlink:href="#base-menu-radio-unchecked"/></g><g id="menu-radio-unchecked-disabled" transform="translate(108 244)"><use id="use495" fill="url(#color-text-secondary-disabled)" xlink:href="#base-menu-radio-unchecked"/></g><g id="menu-radio-checked" transform="translate(140 220)"><use id="use498" fill="url(#color-primary)" xlink:href="#base-menu-radio-checked"/></g><g id="menu-radio-checked-disabled" transform="translate(140 244)"><use id="use501" fill="url(#color-text-secondary-disabled)" xlink:href="#base-menu-radio-checked"/></g><g id="menu-radio-mixed" transform="translate(172 220)"><use id="use504" fill="url(#color-primary)" xlink:href="#base-menu-radio-mixed"/></g><g id="menu-radio-mixed-disabled" transform="translate(172 244)"><use id="use507" fill="url(#color-text-secondary-disabled)" xlink:href="#base-menu-radio-mixed"/></g><g id="scale-slider" transform="translate(8 268)"><circle id="circle510" cx="12" cy="12" r="12" fill="url(#color-primary)" fill-opacity="0"/><circle id="circle512" cx="12" cy="12" r="6" fill="url(#color-primary)"/></g><g id="scale-slider-hover" transform="translate(8 300)"><circle id="circle515" cx="12" cy="12" r="12" fill="url(#color-primary)" fill-opacity=".08"/><circle id="circle517" cx="12" cy="12" r="6" fill="url(#color-primary)"/></g><g id="scale-slider-active" transform="translate(8 332)"><circle id="circle520" cx="12" cy="12" r="12" fill="url(#color-primary)" fill-opacity=".2"/><circle id="circle522" cx="12" cy="12" r="6" fill="url(#color-primary)"/></g><g id="scale-slider-disabled" transform="translate(8 364)"><circle id="circle525" cx="12" cy="12" r="12" fill="none"/><circle id="circle527" cx="12" cy="12" r="6" fill="url(#color-background)"/><circle id="circle529" cx="12" cy="12" r="6" fill="url(#color-text-secondary-disabled)"/></g><g id="scale-horz-trough" transform="translate(40 268)"><use id="use532" fill="url(#color-track)" xlink:href="#base-scale-horz-trough"/></g><g id="scale-horz-trough-active" transform="translate(40 332)"><use id="use535" fill="url(#color-primary)" xlink:href="#base-scale-horz-trough"/></g><g id="scale-horz-trough-disabled" transform="translate(40 364)"><use id="use538" fill="url(#color-track-disabled)" xlink:href="#base-scale-horz-trough"/></g><g id="scale-vert-trough" transform="translate(72 268)"><use id="use541" fill="url(#color-track)" xlink:href="#base-scale-vert-trough"/></g><g id="scale-vert-trough-active" transform="translate(72 332)"><use id="use544" fill="url(#color-primary)" xlink:href="#base-scale-vert-trough"/></g><g id="scale-vert-trough-disabled" transform="translate(72 364)"><use id="use547" fill="url(#color-track-disabled)" xlink:href="#base-scale-vert-trough"/></g><g id="scrollbar-horz-slider" transform="translate(104 268)"><use id="use550" fill="url(#color-text-disabled)" xlink:href="#base-scrollbar-horz-slider"/></g><g id="scrollbar-horz-slider-hover" transform="translate(104 292)"><use id="use553" fill="url(#color-text-secondary)" xlink:href="#base-scrollbar-horz-slider"/></g><g id="scrollbar-horz-slider-active" transform="translate(104 316)"><use id="use556" fill="url(#color-text)" xlink:href="#base-scrollbar-horz-slider"/></g><g id="scrollbar-horz-slider-disabled" transform="translate(104 340)"><use id="use559" fill="url(#color-text-secondary-disabled)" xlink:href="#base-scrollbar-horz-slider"/></g><g id="scrollbar-horz-trough" transform="translate(104 364)"><use id="use562" xlink:href="#base-scrollbar-horz-trough"/></g><g id="scrollbar-vert-ltr-slider" transform="translate(128 268)"><use id="use565" fill="url(#color-text-disabled)" xlink:href="#base-scrollbar-vert-ltr-slider"/></g><g id="scrollbar-vert-ltr-slider-hover" transform="translate(128 292)"><use id="use568" fill="url(#color-text-secondary)" xlink:href="#base-scrollbar-vert-ltr-slider"/></g><g id="scrollbar-vert-ltr-slider-active" transform="translate(128 316)"><use id="use571" fill="url(#color-text)" xlink:href="#base-scrollbar-vert-ltr-slider"/></g><g id="scrollbar-vert-ltr-slider-disabled" transform="translate(128 340)"><use id="use574" fill="url(#color-text-secondary-disabled)" xlink:href="#base-scrollbar-vert-ltr-slider"/></g><g id="scrollbar-vert-ltr-trough" transform="translate(128 364)"><use id="use577" xlink:href="#base-scrollbar-vert-ltr-trough"/></g><g id="scrollbar-vert-rtl-slider" transform="translate(152 268)"><use id="use580" fill="url(#color-text-disabled)" xlink:href="#base-scrollbar-vert-rtl-slider"/></g><g id="scrollbar-vert-rtl-slider-hover" transform="translate(152 292)"><use id="use583" fill="url(#color-text-secondary)" xlink:href="#base-scrollbar-vert-rtl-slider"/></g><g id="scrollbar-vert-rtl-slider-active" transform="translate(152 316)"><use id="use586" fill="url(#color-text)" xlink:href="#base-scrollbar-vert-rtl-slider"/></g><g id="scrollbar-vert-rtl-slider-disabled" transform="translate(152 340)"><use id="use589" fill="url(#color-text-secondary-disabled)" xlink:href="#base-scrollbar-vert-rtl-slider"/></g><g id="scrollbar-vert-rtl-trough" transform="translate(152 364)"><use id="use592" xlink:href="#base-scrollbar-vert-rtl-trough"/></g><g id="handle-horz" transform="translate(176 292)"><use id="use595" fill="url(#color-text-disabled)" xlink:href="#base-handle-horz"/></g><g id="handle-horz-hover" transform="translate(176 328)"><use id="use598" fill="url(#color-text-secondary)" xlink:href="#base-handle-horz"/></g><g id="handle-horz-active" transform="translate(176 364)"><use id="use601" fill="url(#color-text)" xlink:href="#base-handle-horz"/></g><g id="handle-vert" transform="translate(176 268)"><use id="use604" fill="url(#color-text-disabled)" xlink:href="#base-handle-vert"/></g><g id="handle-vert-hover" transform="translate(176 304)"><use id="use607" fill="url(#color-text-secondary)" xlink:href="#base-handle-vert"/></g><g id="handle-vert-active" transform="translate(176 340)"><use id="use610" fill="url(#color-text)" xlink:href="#base-handle-vert"/></g><g id="pan-up" transform="translate(8 396)"><use id="use613" fill="url(#color-text)" xlink:href="#base-pan-up"/></g><g id="pan-up-disabled" transform="translate(8 416)"><use id="use616" fill="url(#color-text-disabled)" xlink:href="#base-pan-up"/></g><g id="pan-up-alt" transform="translate(8 436)"><use id="use619" fill="url(#color-text-secondary)" xlink:href="#base-pan-up"/></g><g id="pan-up-alt-disabled" transform="translate(8 456)"><use id="use622" fill="url(#color-text-secondary-disabled)" xlink:href="#base-pan-up"/></g><g id="pan-down" transform="translate(28 396)"><use id="use625" fill="url(#color-text)" xlink:href="#base-pan-down"/></g><g id="pan-down-disabled" transform="translate(28 416)"><use id="use628" fill="url(#color-text-disabled)" xlink:href="#base-pan-down"/></g><g id="pan-down-alt" transform="translate(28 436)"><use id="use631" fill="url(#color-text-secondary)" xlink:href="#base-pan-down"/></g><g id="pan-down-alt-disabled" transform="translate(28 456)"><use id="use634" fill="url(#color-text-secondary-disabled)" xlink:href="#base-pan-down"/></g><g id="pan-left" transform="translate(48 396)"><use id="use637" fill="url(#color-text)" xlink:href="#base-pan-left"/></g><g id="pan-left-disabled" transform="translate(48 416)"><use id="use640" fill="url(#color-text-disabled)" xlink:href="#base-pan-left"/></g><g id="pan-left-alt" transform="translate(48 436)"><use id="use643" fill="url(#color-text-secondary)" xlink:href="#base-pan-left"/></g><g id="pan-left-alt-disabled" transform="translate(48 456)"><use id="use646" fill="url(#color-text-secondary-disabled)" xlink:href="#base-pan-left"/></g><g id="pan-right" transform="translate(68 396)"><use id="use649" fill="url(#color-text)" xlink:href="#base-pan-right"/></g><g id="pan-right-disabled" transform="translate(68 416)"><use id="use652" fill="url(#color-text-disabled)" xlink:href="#base-pan-right"/></g><g id="pan-right-alt" transform="translate(68 436)"><use id="use655" fill="url(#color-text-secondary)" xlink:href="#base-pan-right"/></g><g id="pan-right-alt-disabled" transform="translate(68 456)"><use id="use658" fill="url(#color-text-secondary-disabled)" xlink:href="#base-pan-right"/></g><g id="pan-left-semi" transform="translate(88 396)"><use id="use661" fill="url(#color-text)" xlink:href="#base-pan-left-semi"/></g><g id="pan-right-semi" transform="translate(108 396)"><use id="use664" fill="url(#color-text)" xlink:href="#base-pan-right-semi"/></g><g id="border" transform="translate(132 396)"><rect id="rect667" width="1" height="1" fill="url(#color-divider)"/></g><g id="tab" transform="translate(144 396)"><rect id="rect670" width="1" height="1" fill="url(#color-primary)"/></g><g id="progressbar-progress" transform="translate(156 396)"><rect id="rect673" width="4" height="4" fill="url(#color-primary)"/></g><g id="progressbar-trough" transform="translate(168 396)"><rect id="rect676" width="4" height="4" fill="url(#color-background)"/><rect id="rect678" width="4" height="4" fill="url(#color-track-disabled)"/></g><g id="frame" transform="translate(132 408)"><rect id="rect681" width="2" height="2" x=".5" y=".5" fill="none" stroke="url(#color-frame)" stroke-width="1"/></g><g id="frame-notebook" transform="translate(144 408)"><rect id="rect684" width="3" height="3" fill="url(#color-frame)"/><rect id="rect686" width="1" height="1" x="1" y="1" fill="url(#color-base)"/></g><g id="frame-inline" transform="translate(156 408)"><rect id="rect689" width="3" height="2" fill="url(#color-frame)"/><rect id="rect691" width="1" height="1" x="1" fill="url(#color-base-alt)"/></g><g id="focus" transform="translate(168 408)"><rect id="rect694" width="8" height="8" x="1" y="1" fill="none" stroke="url(#color-divider)" stroke-width="2" rx="3"/></g><g id="treeview-ltr-button" transform="translate(180 396)"><use id="use697" fill="url(#color-text)" fill-opacity="0" xlink:href="#base-treeview-ltr-button"/></g><g id="treeview-ltr-button-hover" transform="translate(180 404)"><use id="use700" fill="url(#color-text)" fill-opacity=".08" xlink:href="#base-treeview-ltr-button"/></g><g id="treeview-ltr-button-active" transform="translate(180 412)"><use id="use703" fill="url(#color-text)" fill-opacity=".2" xlink:href="#base-treeview-ltr-button"/></g><g id="treeview-rtl-button" transform="translate(190 396)"><use id="use706" fill="url(#color-text)" fill-opacity="0" xlink:href="#base-treeview-rtl-button"/></g><g id="treeview-rtl-button-hover" transform="translate(190 404)"><use id="use709" fill="url(#color-text)" fill-opacity=".08" xlink:href="#base-treeview-rtl-button"/></g><g id="treeview-rtl-button-active" transform="translate(190 412)"><use id="use712" fill="url(#color-text)" fill-opacity=".2" xlink:href="#base-treeview-rtl-button"/></g><g id="entry-background" transform="translate(56,8)"><rect id="rect257" width="1" height="1" x="0" y="0" fill="url(#linearGradient1593)"/></g><g id="entry-background-disabled" transform="translate(56,68)"><rect id="rect260" width="1" height="1" x="0" y="0" fill="url(#linearGradient1554)"/></g><g id="button-hover" transform="translate(32,28)"><use id="use660" width="100%" height="100%" x="0" y="0" fill="url(#linearGradient1558)" fill-opacity=".08" xlink:href="#base-button-box"/></g><g id="button-active" transform="translate(32,48)"><use id="use663" width="100%" height="100%" x="0" y="0" fill="url(#a)" fill-opacity=".2" xlink:href="#base-button-box"/></g><g id="button" transform="translate(32,6)"><use id="use666" width="100%" height="100%" x="0" y="0" fill="url(#b)" xlink:href="#base-button-box"/></g></svg>