<svg xmlns="http://www.w3.org/2000/svg" xmlns:svg="http://www.w3.org/2000/svg" id="svg6" width="28" height="28" enable-background="new" version="1.0"><metadata id="metadata12"/><circle id="path816" cx="14" cy="14" r="14" fill="#fff" fill-opacity="1" stroke="none" stroke-dasharray="none" stroke-linecap="round" stroke-linejoin="round" stroke-miterlimit="4" stroke-opacity="1" stroke-width="1.307" opacity=".25" paint-order="normal"/><g id="g4" fill="#fff" transform="translate(2,-274)"><path id="path2" fill="#fff" d="m 12,6 a 6,6 0 0 0 -6,6 6,6 0 0 0 6,6 6,6 0 0 0 6,-6 6,6 0 0 0 -6,-6 z m 0,2 a 4,4 0 0 1 4,4 4,4 0 0 1 -4,4 4,4 0 0 1 -4,-4 4,4 0 0 1 4,-4 z" paint-order="fill markers stroke" transform="translate(0,276)"/></g></svg>